<svg width="24" height="24" viewBox="0 0 24 24" fill="none" xmlns="http://www.w3.org/2000/svg">
<path d="M20.2498 1.5H20.2488C19.6009 1.50045 18.9706 1.71064 18.4521 2.09911C17.9336 2.48759 17.5548 3.03348 17.3723 3.65514C17.1899 4.2768 17.2136 4.94082 17.4399 5.5479C17.6662 6.15497 18.0829 6.67247 18.6278 7.023L18.6398 7.03L16.6818 13.882C16.6209 13.878 16.5599 13.876 16.4988 13.876H16.4958C15.8481 13.8749 15.2177 14.0856 14.7008 14.476L14.7088 14.471L11.0918 11.457C11.2629 10.949 11.2947 10.4045 11.184 9.87998C11.0734 9.35551 10.8242 8.87028 10.4624 8.47475C10.1006 8.07922 9.63946 7.78785 9.12692 7.63093C8.61437 7.47402 8.06915 7.4573 7.54795 7.58251C7.02675 7.70772 6.54862 7.97028 6.16329 8.3429C5.77795 8.71552 5.49949 9.18457 5.35686 9.70127C5.21424 10.218 5.21266 10.7635 5.35228 11.281C5.49191 11.7985 5.76765 12.2692 6.15082 12.644L6.15182 12.645L4.02882 16.891C3.93577 16.8818 3.84232 16.8771 3.74882 16.877H3.74482C3.02677 16.8771 2.33251 17.1344 1.78782 17.6023C1.24314 18.0701 0.884062 18.7176 0.775653 19.4275C0.667243 20.1373 0.816673 20.8624 1.19687 21.4716C1.57706 22.0807 2.16287 22.5335 2.84815 22.7479C3.53343 22.9624 4.27285 22.9242 4.93244 22.6404C5.59203 22.3567 6.12815 21.846 6.44367 21.201C6.75919 20.556 6.83323 19.8193 6.65237 19.1244C6.47152 18.4295 6.04774 17.8224 5.45782 17.413L5.44782 17.407L7.45382 13.395C7.94159 13.5306 8.45587 13.5398 8.94818 13.4217C9.4405 13.3036 9.89464 13.0621 10.2678 12.72L10.2658 12.722L13.7678 15.64C13.5303 16.1634 13.4482 16.7441 13.5312 17.3128C13.6142 17.8816 13.8588 18.4146 14.236 18.8483C14.6132 19.282 15.107 19.5983 15.6588 19.7594C16.2105 19.9205 16.797 19.9197 17.3483 19.7571C17.8996 19.5945 18.3926 19.277 18.7687 18.8423C19.1447 18.4075 19.3879 17.8739 19.4694 17.305C19.5509 16.736 19.4672 16.1555 19.2283 15.6327C18.9894 15.1099 18.6053 14.6668 18.1218 14.356L18.1098 14.349L20.0678 7.497C20.4692 7.52241 20.8717 7.46684 21.2512 7.3336C21.6307 7.20035 21.9795 6.99215 22.2769 6.72137C22.5744 6.4506 22.8143 6.12278 22.9825 5.75741C23.1507 5.39204 23.2437 4.99658 23.2559 4.59454C23.2682 4.19251 23.1995 3.79211 23.0539 3.41716C22.9084 3.04221 22.6889 2.70036 22.4085 2.41195C22.1282 2.12353 21.7927 1.89444 21.422 1.73829C21.0513 1.58214 20.653 1.50212 20.2508 1.503L20.2498 1.5ZM3.74982 21.375C3.45314 21.375 3.16313 21.287 2.91646 21.1222C2.66979 20.9574 2.47753 20.7231 2.364 20.449C2.25047 20.1749 2.22076 19.8733 2.27864 19.5824C2.33652 19.2914 2.47938 19.0241 2.68916 18.8143C2.89893 18.6046 3.16621 18.4617 3.45718 18.4038C3.74815 18.3459 4.04975 18.3757 4.32384 18.4892C4.59793 18.6027 4.8322 18.795 4.99702 19.0416C5.16184 19.2883 5.24982 19.5783 5.24982 19.875C5.24929 20.2727 5.09108 20.6539 4.80989 20.9351C4.5287 21.2163 4.14748 21.3745 3.74982 21.375ZM8.24982 12C7.95314 12 7.66313 11.912 7.41646 11.7472C7.16979 11.5824 6.97753 11.3481 6.864 11.074C6.75046 10.7999 6.72076 10.4983 6.77864 10.2074C6.83652 9.91639 6.97938 9.64912 7.18916 9.43934C7.39893 9.22956 7.66621 9.0867 7.95718 9.02882C8.24815 8.97094 8.54975 9.00065 8.82384 9.11418C9.09793 9.22771 9.3322 9.41997 9.49702 9.66665C9.66184 9.91332 9.74982 10.2033 9.74982 10.5C9.74929 10.8977 9.59108 11.2789 9.30989 11.5601C9.0287 11.8413 8.64748 11.9995 8.24982 12ZM16.4998 18.375C16.2031 18.375 15.9131 18.287 15.6665 18.1222C15.4198 17.9574 15.2275 17.7231 15.114 17.449C15.0005 17.1749 14.9708 16.8733 15.0286 16.5824C15.0865 16.2914 15.2294 16.0241 15.4392 15.8143C15.6489 15.6046 15.9162 15.4617 16.2072 15.4038C16.4982 15.3459 16.7998 15.3756 17.0738 15.4892C17.3479 15.6027 17.5822 15.795 17.747 16.0416C17.9118 16.2883 17.9998 16.5783 17.9998 16.875C17.9993 17.2727 17.8411 17.6539 17.5599 17.9351C17.2787 18.2163 16.8975 18.3745 16.4998 18.375ZM20.2498 6C19.9531 6 19.6631 5.91203 19.4165 5.7472C19.1698 5.58238 18.9775 5.34811 18.864 5.07403C18.7505 4.79994 18.7208 4.49834 18.7786 4.20736C18.8365 3.91639 18.9794 3.64912 19.1892 3.43934C19.3989 3.22956 19.6662 3.0867 19.9572 3.02882C20.2482 2.97094 20.5498 3.00065 20.8238 3.11418C21.0979 3.22771 21.3322 3.41997 21.497 3.66664C21.6618 3.91332 21.7498 4.20333 21.7498 4.5C21.7493 4.89766 21.5911 5.27889 21.3099 5.56008C21.0287 5.84127 20.6475 5.99947 20.2498 6Z" fill="#D8DADA"/>
</svg>
